# xmcd
#
# Track frame offsets: 
#        150
#        20845
#        36821
#        53455
#        67055
#        100285
#        119371
#        138663
#        153904
#        168493
#
# Disc length: 2407 seconds
#
# Revision: 0
# Processed by: cddbd v1.5.2PL0 Copyright (c) Steve Scherf et al.
# Submitted via: ExactAudioCopy v0.99pb5
#
DISCID=8809650a
DTITLE=Dwayne Dopsie - The Traveling Man
DYEAR=2006
DGENRE=Blues
TTITLE0=My Baby's On The Phone
TTITLE1=I Wish You Was Mine
TTITLE2=Peace Of Mind
TTITLE3=My Louisiana Beauty
TTITLE4=Traveling Man
TTITLE5=Where'd My Baby Go
TTITLE6=My Name Is Hurricane
TTITLE7=Thinking Of You
TTITLE8=Everybody Say
TTITLE9=Zydeco 2 step
EXTD=
EXTT0=
EXTT1=
EXTT2=
EXTT3=
EXTT4=
EXTT5=
EXTT6=
EXTT7=
EXTT8=
EXTT9=
PLAYORDER=
